PathFileType	4	(X/Y/Z)	c:/Users/goper/Files/vsCode/490R/osim_files/C10/C10_SSWS_06.trc
DataRate	CameraRate	NumFrames	NumMarkers	Units                	OrigDataRate	OrigDataStartFrame	OrigNumFrames
250.00	250.00	10	36	mm	250.0	1918	2557
                Frame#	Time	LPSIS			LASIS			LTH1			LTH2			LTH3			LTH4			LLFE			LMFE			LSH1			LSH2			LSH3			LSH4			LLMAL			LMMAL			LCAL			LMTP5			LTOE			LMTP1			RPSIS			RASIS			RTH1			RTH2			RTH3			RTH4			RLFE			RMFE			RSH1			RSH2			RSH3			RSH4			RLMAL			RMMAL			RCAL			RMTP1			RTOE			RMTP5		
		X1	Y1	Z1	X2	Y2	Z2	X3	Y3	Z3	X4	Y4	Z4	X5	Y5	Z5	X6	Y6	Z6	X7	Y7	Z7	X8	Y8	Z8	X9	Y9	Z9	X10	Y10	Z10	X11	Y11	Z11	X12	Y12	Z12	X13	Y13	Z13	X14	Y14	Z14	X15	Y15	Z15	X16	Y16	Z16	X17	Y17	Z17	X18	Y18	Z18	X19	Y19	Z19	X20	Y20	Z20	X21	Y21	Z21	X22	Y22	Z22	X23	Y23	Z23	X24	Y24	Z24	X25	Y25	Z25	X26	Y26	Z26	X27	Y27	Z27	X28	Y28	Z28	X29	Y29	Z29	X30	Y30	Z30	X31	Y31	Z31	X32	Y32	Z32	X33	Y33	Z33	X34	Y34	Z34	X35	Y35	Z35	X36	Y36	Z36

1918	7.66800	-1500.30359	1023.37091	284.89697	-1665.32495	1015.38196	419.86728	-1621.94092	777.06567	463.61868	-1632.83020	730.78125	456.55945	-1681.47705	787.18518	447.93451	-1681.45959	739.89380	441.42499	0.00000	0.00000	0.00000	-1651.49817	486.01755	256.44275	-1597.75952	402.25342	378.70844	-1598.66797	354.79794	380.70941	-1657.81311	399.89911	366.81970	-1648.81885	353.71472	366.82004	-1612.63049	84.93110	322.18375	0.00000	0.00000	0.00000	-1544.63904	40.81954	278.14618	-1720.31592	30.17196	333.41153	-1768.83032	50.18506	269.30988	-1729.06592	17.00137	229.57484	-1505.14746	1018.03510	204.72034	-1659.54565	995.90936	84.22134	-1653.14014	726.47394	47.71116	-1675.74609	690.02057	49.38940	-1711.85437	755.21204	48.86800	-1729.46655	712.65546	51.44283	-1791.06555	500.04474	104.69903	-1819.70117	494.62369	220.35645	-1691.22253	468.60162	102.84328	-1666.73254	432.62094	101.19363	-1742.07996	425.78067	103.12333	-1706.34070	398.45450	97.99835	-1511.42700	219.97102	146.96217	-1535.34131	212.87645	225.97575	-1441.32117	224.10181	190.36649	-1563.38367	77.74625	212.60010	-1599.25134	69.91449	175.73633	-1553.91956	95.12400	114.60109
1919	7.67200	-1504.84424	1023.40155	285.07892	-1669.69751	1015.32977	420.21231	-1624.94141	777.05499	463.64594	-1635.29456	730.73730	456.48767	-1684.59082	786.89154	448.15881	-1684.32104	739.57770	441.48914	0.00000	0.00000	0.00000	-1653.17944	485.68094	256.63300	-1598.55786	402.50333	379.13541	-1600.13721	355.63931	381.99957	-1658.50549	399.73767	366.99664	-1649.32007	353.61563	366.98215	-1612.84705	85.23559	321.35962	0.00000	0.00000	0.00000	-1544.14624	40.86749	277.89618	-1720.38733	29.98473	333.05359	-1768.88867	50.12583	269.35510	-1728.59570	17.07080	229.48398	-1509.41638	1018.31641	204.81842	-1664.10461	996.36102	84.70553	-1659.02332	727.20178	47.70070	-1682.10803	690.90796	49.38095	-1717.54016	756.35052	48.99656	-1734.73083	712.85370	52.48666	-1799.25757	502.01804	105.63500	-1825.99231	496.37799	219.92345	-1699.61743	468.30832	102.77518	-1676.08667	431.73325	101.35999	-1751.21619	426.63287	103.47610	-1716.31934	398.40558	98.52045	-1524.69739	216.52057	147.63567	-1548.86755	209.83340	226.52988	-1454.42334	218.55748	191.16106	-1579.99170	75.95164	211.79483	-1617.97644	68.08154	176.24118	-1570.60229	93.39648	114.46087
1920	7.67600	-1509.40833	1023.40527	285.28497	-1673.99402	1015.16187	420.52466	-1628.05872	777.03076	463.63412	-1638.22205	730.65326	456.38843	-1687.83057	786.60059	448.26294	-1687.34546	739.29260	441.51367	0.00000	0.00000	0.00000	-1654.78943	485.32178	256.69534	-1599.60925	402.83127	379.92911	-1599.69373	354.95248	380.67249	-1659.23157	399.56955	367.17499	-1650.00330	353.60199	367.10822	-1612.88525	85.24881	321.29086	0.00000	0.00000	0.00000	-1544.14368	40.89253	277.85068	-1720.38757	29.95741	333.04691	-1768.96667	50.08269	269.39383	-1728.58325	17.01097	229.52664	-1513.67114	1018.56024	204.89981	-1668.85657	996.82404	85.22269	-1664.79639	727.87524	47.63669	-1688.67236	691.71405	49.42638	-1723.09363	757.42279	49.01602	-1739.74866	712.90790	54.02222	-1807.68323	503.65366	106.35194	-1833.15515	498.51224	220.05832	-1708.05261	467.94489	102.78107	-1685.39368	430.76395	101.61572	-1760.58508	427.10211	104.20439	-1726.26953	398.24890	99.24281	-1538.00854	212.98837	148.19545	-1562.59741	206.64981	227.06763	-1467.71594	212.83597	191.93289	-1598.44922	73.61485	212.02377	-1635.14624	67.47398	175.85452	-1587.41541	91.67056	114.36059
1921	7.68000	-1513.80811	1023.36908	285.43460	-1678.28040	1014.98926	420.87366	-1631.18579	776.99591	463.58673	-1641.18750	730.57544	456.28555	-1691.05237	786.28552	448.34650	-1690.42932	739.00763	441.51730	0.00000	0.00000	0.00000	-1656.66003	485.11584	257.17719	-1600.53369	402.93845	379.95544	-1599.99292	355.28943	380.41000	-1660.08240	399.47845	367.32849	-1650.74365	353.47314	367.23135	-1612.94031	85.25710	321.23462	0.00000	0.00000	0.00000	-1544.14514	40.94284	277.81543	-1720.40613	29.96297	333.05774	-1769.02295	50.03662	269.40088	-1728.56433	16.92911	229.56340	-1517.91162	1018.68219	204.91986	-1673.43872	997.14575	85.63154	-1670.55347	728.52087	47.61266	-1695.39392	692.43958	49.51560	-1727.91956	757.88501	48.50921	-1744.58459	712.86548	55.92595	-1815.88745	505.23129	107.04774	-1840.73096	500.62393	220.54538	-1716.42517	467.38403	102.91711	-1694.53088	429.79907	101.83936	-1769.87537	427.56366	104.90025	-1737.24744	397.12238	101.53154	-1551.36890	209.37228	148.67839	-1576.32544	203.45689	227.57631	-1481.10498	206.97028	192.62411	-1615.98657	71.61246	211.72812	-1653.13611	66.48714	175.86890	-1604.31763	89.96346	114.25762
1922	7.68400	-1518.21729	1023.30341	285.47269	-1682.50012	1014.76300	421.19623	-1634.38147	776.93793	463.58441	-1644.17078	730.46832	456.20758	-1694.33691	785.89929	448.48642	-1693.52344	738.69897	441.50839	0.00000	0.00000	0.00000	-1658.18555	484.93802	257.33313	-1601.30603	402.93121	379.63589	-1602.30408	355.85269	382.16025	-1661.13879	399.33990	367.45370	-1651.53113	353.32816	367.35760	-1612.98572	85.27647	321.14386	0.00000	0.00000	0.00000	-1544.15649	40.99077	277.78302	-1720.40979	29.92819	333.02817	-1769.09949	49.98587	269.41104	-1728.55310	16.87222	229.58107	-1522.23621	1018.71265	204.92595	-1678.15637	997.53625	86.07220	-1676.32080	729.11121	47.57331	-1702.22778	693.08527	49.63853	-1733.43579	758.79828	48.59756	-1749.30298	712.77393	58.07428	-1823.10400	507.33249	107.28928	-1848.29773	502.67014	221.12473	-1725.04102	466.43265	103.08987	-1703.48755	428.69803	102.10784	-1778.97803	427.93753	105.55284	-1747.02759	396.86292	102.29095	-1563.97375	206.14609	148.82329	-1590.24585	200.12297	228.09801	-1494.10217	201.27502	192.98950	-1633.03027	69.88027	210.96713	-1670.94470	65.81087	175.49969	-1621.32080	88.28616	114.08318
1923	7.68800	-1522.65442	1023.13739	285.47705	-1686.77625	1014.52887	421.51581	-1637.63452	776.86359	463.58542	-1647.21313	730.34125	456.14719	-1697.65796	785.55090	448.58096	-1696.15063	738.11902	441.89615	0.00000	0.00000	0.00000	-1659.55530	484.82202	257.44849	-1602.14148	402.93491	379.38867	-1603.12231	355.91772	382.26807	-1662.11597	399.23776	367.58981	-1652.38684	353.24683	367.44003	-1613.05603	85.28226	321.08319	0.00000	0.00000	0.00000	-1544.15234	41.03553	277.77991	-1720.42456	29.90210	333.03946	-1769.19263	49.89874	269.44763	-1728.52405	16.75831	229.64619	-1526.54968	1018.65417	204.90570	-1682.80652	997.77454	86.46404	-1681.89673	729.70056	47.56762	-1709.12866	693.65192	49.78507	-1738.94690	759.68567	48.73766	-1753.96802	712.68054	60.34363	-1831.33154	508.51953	108.31323	-1855.75000	504.58005	221.67325	-1732.62061	466.14670	103.30286	-1712.30286	427.66931	102.34196	-1787.99976	428.24365	106.17594	-1756.64111	396.52951	103.05075	-1577.58911	202.32243	149.35721	-1604.28552	196.73187	228.51930	-1507.62305	195.39487	193.54042	-1651.73267	67.67671	211.27985	-1688.98816	65.21449	175.10173	-1638.03015	86.70724	113.79530
1924	7.69200	-1527.03894	1022.92108	285.44266	-1690.95056	1014.26868	421.81577	-1641.68262	776.71460	463.70349	-1650.27271	730.21570	456.09854	-1700.98633	785.21881	448.67291	-1699.72925	737.89874	441.73495	0.00000	0.00000	0.00000	-1660.92358	484.64240	257.61240	-1603.32214	403.03030	379.59073	-1603.05554	355.19202	380.98846	-1663.27917	399.06033	367.65747	-1653.38013	353.14050	367.52576	-1613.11450	85.31303	321.01385	0.00000	0.00000	0.00000	-1544.14465	41.09358	277.75159	-1720.44897	29.90666	333.03174	-1769.30249	49.87514	269.44519	-1728.49304	16.70855	229.66759	-1530.87585	1018.51221	204.88759	-1687.49548	998.00836	86.86572	-1687.64038	730.11316	47.55068	-1716.05139	694.14014	49.94516	-1744.52832	760.55963	48.82547	-1758.64429	712.63287	62.61045	-1838.13538	510.51834	108.47736	-1862.93701	506.41745	222.17244	-1740.39465	465.50470	103.64193	-1721.20361	426.41843	102.78220	-1796.91370	428.55688	106.83420	-1766.18115	396.16660	103.75063	-1591.37634	198.40852	149.87270	-1618.48706	193.22815	228.99977	-1521.69653	189.05730	194.26097	-1671.17786	65.84874	211.95586	-1707.06885	64.73399	174.71698	-1655.65442	84.93624	113.77395
1925	7.69600	-1531.36633	1022.65393	285.34094	-1695.16150	1013.96588	422.17044	-1644.18237	776.69379	463.65424	-1653.36743	730.11646	456.14401	-1703.95593	784.67450	449.09216	-1702.92725	737.55469	441.77451	0.00000	0.00000	0.00000	-1662.30481	484.48639	257.74280	-1604.91785	403.19135	380.50314	-1605.10681	356.00586	382.47202	-1664.41357	398.97955	367.78830	-1654.36621	353.05289	367.58371	-1613.14209	85.29299	320.97400	0.00000	0.00000	0.00000	-1544.12805	41.12200	277.75064	-1720.46155	29.87436	333.03769	-1770.01660	49.75749	268.70709	-1728.29492	16.41540	229.22171	-1535.14453	1018.31189	204.76770	-1692.23987	998.22125	87.24723	-1693.27319	730.51300	47.52969	-1722.95068	694.55078	50.10870	-1749.97229	761.34149	48.89899	-1763.39600	712.67822	64.75116	-1845.42847	511.94290	109.04645	-1869.99207	508.19540	222.69171	-1747.98962	464.79449	104.04962	-1730.01892	425.00000	103.27554	-1805.57117	428.76831	107.50669	-1775.63611	395.77005	104.42403	-1605.28845	194.34113	150.40424	-1632.79846	189.64879	229.50201	-1535.86328	182.64148	194.94887	-1689.40100	64.12165	211.78716	-1725.11633	64.24620	174.30637	-1672.92261	83.28571	113.60583
1926	7.70000	-1535.76868	1022.37457	285.19556	-1699.50134	1013.73022	422.39484	-1647.47302	776.63507	463.71036	-1656.45947	730.01019	456.20416	-1707.29871	784.35571	449.24890	-1706.02014	737.20367	441.94086	0.00000	0.00000	0.00000	-1663.70325	484.36819	257.77795	-1606.07324	403.25992	380.97388	-1605.17029	355.23117	381.24255	-1665.67480	398.81247	367.85672	-1655.37000	352.89624	367.57913	-1613.21277	85.31627	320.92969	0.00000	0.00000	0.00000	-1544.11377	41.15549	277.73764	-1720.44043	29.87473	333.02411	-1770.10327	49.71180	268.70145	-1728.25439	16.33381	229.25117	-1539.59265	1017.97198	204.65355	-1696.81201	998.31146	87.57198	-1698.92590	730.86401	47.55652	-1729.78174	694.88452	50.26560	-1755.44727	762.08887	49.01658	-1768.28772	712.86407	66.64220	-1852.55347	513.32928	109.59737	-1876.85083	509.79968	223.21024	-1756.58667	463.17062	104.56562	-1738.69348	422.87738	103.93876	-1814.21094	429.02316	108.13418	-1785.04016	395.38348	105.06847	-1619.35571	190.21370	150.89925	-1647.55139	185.62120	229.73357	-1550.33374	176.14127	195.61926	-1707.71106	62.40903	211.37488	-1745.11523	64.59257	174.09732	-1690.25671	81.63394	113.43209
1927	7.70400	-1540.04358	1022.02435	285.02377	-1704.08997	1013.52606	422.61444	-1650.78198	776.52271	463.83493	-1659.51611	729.88751	456.32428	-1710.69006	784.00885	449.35217	-1709.22791	736.84351	442.07623	0.00000	0.00000	0.00000	-1665.12988	484.16309	257.86191	-1607.28345	403.23431	380.89014	-1606.22827	355.24399	381.36630	-1666.85303	398.63199	367.92886	-1656.45544	352.79929	367.62549	-1613.28076	85.30533	320.87183	0.00000	0.00000	0.00000	-1544.13403	41.15263	277.71402	-1720.42310	29.84343	333.03366	-1770.15295	49.63124	268.70743	-1728.25330	16.21487	229.28932	-1543.96509	1017.54126	204.49806	-1701.55884	998.41943	87.94236	-1704.35754	731.18005	47.42720	-1736.49939	695.14191	50.40580	-1760.87195	762.72711	49.10367	-1773.38379	713.23779	68.16000	-1859.43738	514.53174	110.16425	-1883.46643	511.24463	223.74576	-1764.30664	462.01700	105.08164	-1747.35059	421.48251	104.46887	-1822.71704	429.22641	108.73152	-1794.26318	394.94907	105.65314	-1633.51196	185.97942	151.32886	-1662.62671	181.52676	231.04268	-1565.05310	169.55632	196.29131	-1726.06226	60.83742	211.06660	-1763.31641	64.31228	173.66307	-1707.59399	79.98409	113.24889
